<svg width="601" height="601" viewBox="0 0 601 601" fill="none" xmlns="http://www.w3.org/2000/svg">
<g clip-path="url(#clip0_45_5)">
<path fill-rule="evenodd" clip-rule="evenodd" d="M281.698 1.24283C279.785 1.46783 273.26 2.14283 267.223 2.74283C196.985 9.75533 126.223 45.9803 78.3727 99.4553C25.4602 158.593 -1.42729 231.98 1.04771 310.168C5.36021 445.205 98.1727 559.543 229.835 592.093C307.048 611.18 391.948 597.568 459.223 555.343C526.348 513.155 573.335 448.168 592.123 371.443C598.573 345.155 600.073 331.768 600.073 300.68C600.073 269.593 598.573 256.205 592.123 229.918C562.423 108.605 462.523 19.3553 338.21 3.08033C327.56 1.69283 288.823 0.455331 281.698 1.24283ZM332.698 59.2928C374.473 64.6928 413.585 80.7803 448.61 106.955C460.948 116.18 485.21 140.443 494.435 152.78C515.473 180.943 531.035 214.055 538.085 245.743C546.11 281.93 546.11 319.43 538.085 355.618C522.56 425.405 473.398 487.355 408.223 519.23C384.673 530.743 360.373 538.28 333.71 542.33C317.81 544.768 283.61 544.768 267.71 542.33C194.66 531.23 133.01 491.368 94.1977 430.093C86.1727 417.455 75.6727 395.405 70.4227 380.143C61.3852 354.005 57.4852 329.968 57.4852 300.68C57.4852 261.718 65.0227 228.493 81.7102 194.18C94.4602 168.005 107.435 149.93 128.698 128.668C149.96 107.405 168.035 94.4303 194.21 81.6803C237.448 60.6428 284.473 53.0678 332.698 59.2928ZM289.685 161.555C281.285 164.293 276.523 169.093 274.198 177.118C272.848 181.693 272.698 192.155 272.923 256.28C273.223 330.155 273.223 330.193 275.398 334.28C278.135 339.418 283.385 344.068 288.373 345.83C293.323 347.555 308.098 347.555 313.048 345.83C318.035 344.068 323.285 339.418 326.023 334.28C328.198 330.193 328.198 330.155 328.498 256.28C328.798 175.58 328.798 175.505 323.06 168.718C318.41 163.168 313.423 161.33 302.21 161.03C296.698 160.88 291.073 161.105 289.685 161.555ZM292.685 395.555C285.598 397.88 278.585 403.918 275.173 410.63C272.548 415.88 272.098 425.368 274.235 431.743C277.76 442.43 289.348 450.68 300.71 450.68C312.073 450.68 323.66 442.43 327.185 431.743C329.323 425.368 328.873 415.88 326.248 410.63C323.81 405.83 317.96 399.905 313.198 397.43C308.848 395.18 297.11 394.093 292.685 395.555Z" fill="#D73636"/>
</g>
<defs>
<clipPath id="clip0_45_5">
<rect width="600" height="600" fill="white" transform="translate(0.710205 0.680176)"/>
</clipPath>
</defs>
</svg>
